<mxfile host="app.diagrams.net" modified="2024-05-27T16:07:48.708Z" agent="Mozilla/5.0 (Windows NT 10.0; Win64; x64) AppleWebKit/537.36 (KHTML, like Gecko) Chrome/125.0.0.0 Safari/537.36" etag="7wEnWg4y2lm8UQz997DX" version="24.4.9" type="github">
  <diagram name="第 1 页" id="J9l3Axjx9WDYRFbsuB5i">
    <mxGraphModel dx="1195" dy="658" grid="1" gridSize="10" guides="1" tooltips="1" connect="1" arrows="1" fold="1" page="1" pageScale="1" pageWidth="827" pageHeight="1169" math="0" shadow="0">
      <root>
        <mxCell id="0" />
        <mxCell id="1" parent="0" />
        <mxCell id="tM-YEnRmtsdziWzni7iV-15" value="" style="edgeStyle=orthogonalEdgeStyle;rounded=0;orthogonalLoop=1;jettySize=auto;html=1;" edge="1" parent="1" source="tM-YEnRmtsdziWzni7iV-1" target="tM-YEnRmtsdziWzni7iV-2">
          <mxGeometry relative="1" as="geometry" />
        </mxCell>
        <mxCell id="tM-YEnRmtsdziWzni7iV-1" value="修改密码" style="whiteSpace=wrap;html=1;fontFamily=Helvetica;fontSize=14;" vertex="1" parent="1">
          <mxGeometry x="210" y="50" width="120" height="60" as="geometry" />
        </mxCell>
        <mxCell id="tM-YEnRmtsdziWzni7iV-16" value="" style="edgeStyle=orthogonalEdgeStyle;rounded=0;orthogonalLoop=1;jettySize=auto;html=1;" edge="1" parent="1" source="tM-YEnRmtsdziWzni7iV-2" target="tM-YEnRmtsdziWzni7iV-11">
          <mxGeometry relative="1" as="geometry" />
        </mxCell>
        <mxCell id="tM-YEnRmtsdziWzni7iV-2" value="输入用户名和密码" style="whiteSpace=wrap;html=1;fontFamily=Helvetica;fontSize=14;" vertex="1" parent="1">
          <mxGeometry x="210" y="140" width="120" height="60" as="geometry" />
        </mxCell>
        <mxCell id="tM-YEnRmtsdziWzni7iV-21" value="" style="edgeStyle=orthogonalEdgeStyle;rounded=0;orthogonalLoop=1;jettySize=auto;html=1;" edge="1" parent="1" source="tM-YEnRmtsdziWzni7iV-3" target="tM-YEnRmtsdziWzni7iV-8">
          <mxGeometry relative="1" as="geometry" />
        </mxCell>
        <mxCell id="tM-YEnRmtsdziWzni7iV-3" value="进入修改界面" style="whiteSpace=wrap;html=1;fontFamily=Helvetica;fontSize=14;" vertex="1" parent="1">
          <mxGeometry x="210" y="340" width="120" height="60" as="geometry" />
        </mxCell>
        <mxCell id="tM-YEnRmtsdziWzni7iV-30" style="edgeStyle=orthogonalEdgeStyle;rounded=0;orthogonalLoop=1;jettySize=auto;html=1;exitX=0.5;exitY=0;exitDx=0;exitDy=0;entryX=0;entryY=0.5;entryDx=0;entryDy=0;" edge="1" parent="1" source="tM-YEnRmtsdziWzni7iV-7" target="tM-YEnRmtsdziWzni7iV-2">
          <mxGeometry relative="1" as="geometry" />
        </mxCell>
        <mxCell id="tM-YEnRmtsdziWzni7iV-7" value="返回错误信息" style="whiteSpace=wrap;html=1;fontSize=14;" vertex="1" parent="1">
          <mxGeometry x="10" y="240" width="120" height="60" as="geometry" />
        </mxCell>
        <mxCell id="tM-YEnRmtsdziWzni7iV-22" value="" style="edgeStyle=orthogonalEdgeStyle;rounded=0;orthogonalLoop=1;jettySize=auto;html=1;" edge="1" parent="1" source="tM-YEnRmtsdziWzni7iV-8" target="tM-YEnRmtsdziWzni7iV-10">
          <mxGeometry relative="1" as="geometry" />
        </mxCell>
        <mxCell id="tM-YEnRmtsdziWzni7iV-8" value="输入新密码" style="whiteSpace=wrap;html=1;fontFamily=Helvetica;fontSize=14;" vertex="1" parent="1">
          <mxGeometry x="210" y="420" width="120" height="60" as="geometry" />
        </mxCell>
        <mxCell id="tM-YEnRmtsdziWzni7iV-24" value="" style="edgeStyle=orthogonalEdgeStyle;rounded=0;orthogonalLoop=1;jettySize=auto;html=1;" edge="1" parent="1" source="tM-YEnRmtsdziWzni7iV-10" target="tM-YEnRmtsdziWzni7iV-12">
          <mxGeometry relative="1" as="geometry" />
        </mxCell>
        <mxCell id="tM-YEnRmtsdziWzni7iV-26" value="否" style="edgeLabel;html=1;align=center;verticalAlign=middle;resizable=0;points=[];" vertex="1" connectable="0" parent="tM-YEnRmtsdziWzni7iV-24">
          <mxGeometry x="-0.0724" y="2" relative="1" as="geometry">
            <mxPoint as="offset" />
          </mxGeometry>
        </mxCell>
        <mxCell id="tM-YEnRmtsdziWzni7iV-27" value="" style="edgeStyle=orthogonalEdgeStyle;rounded=0;orthogonalLoop=1;jettySize=auto;html=1;" edge="1" parent="1" source="tM-YEnRmtsdziWzni7iV-10" target="tM-YEnRmtsdziWzni7iV-13">
          <mxGeometry relative="1" as="geometry" />
        </mxCell>
        <mxCell id="tM-YEnRmtsdziWzni7iV-28" value="是" style="edgeLabel;html=1;align=center;verticalAlign=middle;resizable=0;points=[];" vertex="1" connectable="0" parent="tM-YEnRmtsdziWzni7iV-27">
          <mxGeometry x="0.2838" relative="1" as="geometry">
            <mxPoint as="offset" />
          </mxGeometry>
        </mxCell>
        <mxCell id="tM-YEnRmtsdziWzni7iV-10" value="验证密码有效性" style="rhombus;whiteSpace=wrap;html=1;fontFamily=Helvetica;fontSize=14;" vertex="1" parent="1">
          <mxGeometry x="210" y="510" width="120" height="60" as="geometry" />
        </mxCell>
        <mxCell id="tM-YEnRmtsdziWzni7iV-17" value="" style="edgeStyle=orthogonalEdgeStyle;rounded=0;orthogonalLoop=1;jettySize=auto;html=1;" edge="1" parent="1" source="tM-YEnRmtsdziWzni7iV-11" target="tM-YEnRmtsdziWzni7iV-7">
          <mxGeometry relative="1" as="geometry" />
        </mxCell>
        <mxCell id="tM-YEnRmtsdziWzni7iV-18" value="否" style="edgeLabel;html=1;align=center;verticalAlign=middle;resizable=0;points=[];" vertex="1" connectable="0" parent="tM-YEnRmtsdziWzni7iV-17">
          <mxGeometry x="-0.1042" y="-1" relative="1" as="geometry">
            <mxPoint as="offset" />
          </mxGeometry>
        </mxCell>
        <mxCell id="tM-YEnRmtsdziWzni7iV-19" value="" style="edgeStyle=orthogonalEdgeStyle;rounded=0;orthogonalLoop=1;jettySize=auto;html=1;" edge="1" parent="1" source="tM-YEnRmtsdziWzni7iV-11" target="tM-YEnRmtsdziWzni7iV-3">
          <mxGeometry relative="1" as="geometry" />
        </mxCell>
        <mxCell id="tM-YEnRmtsdziWzni7iV-20" value="是" style="edgeLabel;html=1;align=center;verticalAlign=middle;resizable=0;points=[];" vertex="1" connectable="0" parent="tM-YEnRmtsdziWzni7iV-19">
          <mxGeometry x="-0.66" y="1" relative="1" as="geometry">
            <mxPoint x="-1" y="3" as="offset" />
          </mxGeometry>
        </mxCell>
        <mxCell id="tM-YEnRmtsdziWzni7iV-11" value="验证信息是否正确" style="rhombus;whiteSpace=wrap;html=1;fontFamily=Helvetica;fontSize=14;" vertex="1" parent="1">
          <mxGeometry x="210" y="240" width="120" height="60" as="geometry" />
        </mxCell>
        <mxCell id="tM-YEnRmtsdziWzni7iV-31" style="edgeStyle=orthogonalEdgeStyle;rounded=0;orthogonalLoop=1;jettySize=auto;html=1;exitX=0.5;exitY=0;exitDx=0;exitDy=0;entryX=1;entryY=0.5;entryDx=0;entryDy=0;" edge="1" parent="1" source="tM-YEnRmtsdziWzni7iV-12" target="tM-YEnRmtsdziWzni7iV-8">
          <mxGeometry relative="1" as="geometry" />
        </mxCell>
        <mxCell id="tM-YEnRmtsdziWzni7iV-12" value="返回错误信息" style="whiteSpace=wrap;html=1;fontFamily=Helvetica;fontSize=14;" vertex="1" parent="1">
          <mxGeometry x="380" y="510" width="120" height="60" as="geometry" />
        </mxCell>
        <mxCell id="tM-YEnRmtsdziWzni7iV-29" value="" style="edgeStyle=orthogonalEdgeStyle;rounded=0;orthogonalLoop=1;jettySize=auto;html=1;" edge="1" parent="1" source="tM-YEnRmtsdziWzni7iV-13" target="tM-YEnRmtsdziWzni7iV-14">
          <mxGeometry relative="1" as="geometry" />
        </mxCell>
        <mxCell id="tM-YEnRmtsdziWzni7iV-13" value="修改后台数据库" style="whiteSpace=wrap;html=1;fontFamily=Helvetica;fontSize=14;" vertex="1" parent="1">
          <mxGeometry x="210" y="600" width="120" height="60" as="geometry" />
        </mxCell>
        <mxCell id="tM-YEnRmtsdziWzni7iV-14" value="系统数据库" style="shape=cylinder3;whiteSpace=wrap;html=1;boundedLbl=1;backgroundOutline=1;size=15;fontFamily=Helvetica;fontSize=14;" vertex="1" parent="1">
          <mxGeometry x="240" y="690" width="60" height="80" as="geometry" />
        </mxCell>
      </root>
    </mxGraphModel>
  </diagram>
</mxfile>
